<?xml version="1.0" encoding="iso-8859-1"?>
<!-- Uploaded to: SVG Repo, www.svgrepo.com, Generator: SVG Repo Mixer Tools -->
<svg version="1.1" id="Layer_1" xmlns="http://www.w3.org/2000/svg" xmlns:xlink="http://www.w3.org/1999/xlink" 
	 viewBox="0 0 511.999 511.999" xml:space="preserve">
<path style="fill:#FF0F4D;" d="M470.388,131.48l-0.958-16.799c-6.124-9.267-12.764-18.017-19.859-26.232l-17.757-7.561
	l-4.675-15.323c-8.882-7.984-18.259-15.281-28.046-21.866L377.042,39.7l-9.37-14.045c-12.624-6.105-25.71-11.157-39.114-15.116
	l-31.539,2.776L281.803,1.329c-8.554-0.874-17.164-1.319-25.798-1.327l-20.898,263.911l20.898,248.085
	c43.502,0.041,87.598-11.012,127.982-34.328c76.31-44.058,121.352-121.475,127.339-203.196l-8.023-16.036l8.105-20.208
	c-2.253-32.737-10.859-65.48-26.305-96.402L470.388,131.48z"/>
<path style="fill:#FF6E7A;" d="M128.023,34.33C79.625,62.273,43.805,103.635,22.548,151.003l2.182,16.527l-17.581,28.57
	c-14.828,61.566-6.977,128.708,27.186,187.88c20.145,34.892,47.264,63.245,78.579,84.317l22.055,2.608l9.38,15.444
	c12.621,6.103,25.704,11.152,39.104,15.111l28.665-0.252l18.089,9.463c8.554,0.874,17.164,1.319,25.798,1.327V0.002
	C212.503-0.039,168.407,11.014,128.023,34.33z"/>
<g>
	
		<rect x="242.203" y="215.043" transform="matrix(-0.5 -0.866 0.866 -0.5 166.0516 605.7106)" style="fill:#FFABB2;" width="31.347" height="79.757"/>
	<path style="fill:#FFABB2;" d="M281.802,1.337L22.563,151.009c-6.524,14.538-11.686,29.638-15.408,45.093L328.558,10.539
		C313.312,6.035,297.654,2.956,281.802,1.337z"/>
	<path style="fill:#FFABB2;" d="M199.851,158.739L399.087,43.71c-10.072-6.777-20.574-12.808-31.423-18.054L184.177,131.591
		L199.851,158.739z"/>
	<path style="fill:#FFABB2;" d="M145.664,263.913L449.555,88.462c-7.121-8.245-14.699-15.952-22.676-23.104L129.991,236.766
		L145.664,263.913z"/>
	<path style="fill:#FFABB2;" d="M328.247,232.39l156.84-90.552c-2.322-4.648-4.778-9.26-7.412-13.819
		c-2.633-4.559-5.398-8.994-8.262-13.328l-156.84,90.552L328.247,232.39z"/>
	<path style="fill:#FFABB2;" d="M511.395,238.233L112.923,468.29c10.072,6.777,20.576,12.808,31.424,18.054l366.971-211.871
		C512.198,262.455,512.228,250.345,511.395,238.233z"/>
	<path style="fill:#FFABB2;" d="M336.687,412.989l-153.235,88.47c15.246,4.504,30.903,7.583,46.756,9.203l122.153-70.525
		L336.687,412.989z"/>
	
		<rect x="376.466" y="376.436" transform="matrix(-0.5 -0.866 0.866 -0.5 242.6123 938.2079)" style="fill:#FFABB2;" width="31.347" height="45.265"/>
</g>
</svg>